<svg width="48" height="34" viewBox="0 0 48 34" fill="none" xmlns="http://www.w3.org/2000/svg">
<path d="M39.2425 24.5649C38.0696 24.5649 36.9554 25.0243 36.1148 25.8551C35.2743 26.6956 34.8051 27.7903 34.8051 28.9632C34.8051 30.1361 35.2645 31.2307 36.1148 32.0713C36.9652 32.9021 38.0696 33.3615 39.2425 33.3615C41.6469 33.3615 43.6017 31.3871 43.6017 28.9632C43.6017 26.5392 41.6469 24.5649 39.2425 24.5649ZM39.2425 31.4067C37.8937 31.4067 36.7599 30.2924 36.7599 28.9632C36.7599 27.6339 37.8937 26.5197 39.2425 26.5197C40.5718 26.5197 41.6469 27.6144 41.6469 28.9632C41.6469 30.312 40.5718 31.4067 39.2425 31.4067ZM40.3763 9.91369C40.2004 9.74753 39.9658 9.65957 39.7214 9.65957H34.7074C34.1698 9.65957 33.73 10.0994 33.73 10.637V18.6516C33.73 19.1892 34.1698 19.629 34.7074 19.629H42.6634C43.201 19.629 43.6408 19.1892 43.6408 18.6516V13.2857C43.6408 13.012 43.5235 12.7481 43.3183 12.5624L40.3763 9.91369ZM41.686 17.6742H35.6848V11.6046H39.3403L41.686 13.7158V17.6742ZM15.3745 24.5649C14.2016 24.5649 13.0874 25.0243 12.2468 25.8551C11.4062 26.6956 10.9371 27.7903 10.9371 28.9632C10.9371 30.1361 11.3965 31.2307 12.2468 32.0713C13.0971 32.9021 14.2016 33.3615 15.3745 33.3615C17.7789 33.3615 19.7337 31.3871 19.7337 28.9632C19.7337 26.5392 17.7789 24.5649 15.3745 24.5649ZM15.3745 31.4067C14.0257 31.4067 12.8919 30.2924 12.8919 28.9632C12.8919 27.6339 14.0257 26.5197 15.3745 26.5197C16.7037 26.5197 17.7789 27.6144 17.7789 28.9632C17.7789 30.312 16.7037 31.4067 15.3745 31.4067ZM8.85522 25.7671H6.89065V23.1672C6.89065 22.6296 6.45082 22.1898 5.91326 22.1898C5.37569 22.1898 4.93586 22.6296 4.93586 23.1672V26.7445C4.93586 27.2821 5.37569 27.7219 5.91326 27.7219H8.85522C9.39279 27.7219 9.83262 27.2821 9.83262 26.7445C9.83262 26.2069 9.39279 25.7671 8.85522 25.7671ZM13.8106 20.4403C13.8106 19.9027 13.3708 19.4629 12.8332 19.4629H0.977398C0.439829 19.4629 0 19.9027 0 20.4403C0 20.9778 0.439829 21.4177 0.977398 21.4177H12.8332C13.3708 21.4177 13.8106 20.9876 13.8106 20.4403ZM2.96151 16.9119L14.8173 16.9803C15.3549 16.9803 15.7947 16.5502 15.8045 16.0127C15.8143 15.4653 15.3745 15.0255 14.8369 15.0255L2.98106 14.9571C2.97129 14.9571 2.97129 14.9571 2.97129 14.9571C2.43372 14.9571 1.99389 15.3871 1.99389 15.9247C1.98412 16.472 2.42395 16.9119 2.96151 16.9119ZM4.95541 12.4745H16.8112C17.3488 12.4745 17.7886 12.0346 17.7886 11.4971C17.7886 10.9595 17.3488 10.5197 16.8112 10.5197H4.95541C4.41784 10.5197 3.97801 10.9595 3.97801 11.4971C3.97801 12.0346 4.41784 12.4745 4.95541 12.4745ZM47.6384 11.155L40.6402 5.35901C40.4643 5.21241 40.2492 5.13421 40.0147 5.13421H31.785V1.61558C31.785 1.07801 31.3451 0.638184 30.8076 0.638184H5.91326C5.37569 0.638184 4.93586 1.07801 4.93586 1.61558V8.77014C4.93586 9.30771 5.37569 9.74753 5.91326 9.74753C6.45082 9.74753 6.89065 9.30771 6.89065 8.77014V2.59298H29.8399V25.7671H21.8253C21.2877 25.7671 20.8479 26.2069 20.8479 26.7445C20.8479 27.2821 21.2877 27.7219 21.8253 27.7219H33.7593C34.2969 27.7219 34.7367 27.2821 34.7367 26.7445C34.7367 26.2069 34.2969 25.7671 33.7593 25.7671H31.7947V7.08901H39.6726L46.0452 12.367L45.9768 25.7475H44.9603C44.4227 25.7475 43.9829 26.1874 43.9829 26.7249C43.9829 27.2625 44.4227 27.7023 44.9603 27.7023H46.9444C47.482 27.7023 47.9218 27.2723 47.9218 26.7347L48 11.9174C47.9902 11.6241 47.8632 11.3407 47.6384 11.155Z" fill="black"/>
</svg>
