<svg width="7" height="12" viewBox="0 0 7 12" fill="none" xmlns="http://www.w3.org/2000/svg">
<path d="M4.49758 5.2974C3.85586 5.07052 3.14608 4.79659 2.74793 4.48412C2.62127 4.38474 2.56624 4.15805 2.61114 3.91993C2.65717 3.67562 2.82124 3.38002 3.14364 3.28299C3.91961 3.04908 4.50452 3.54849 4.53967 3.57933C4.8243 3.83921 5.26539 3.82196 5.52854 3.53912C5.79311 3.25496 5.77707 2.81002 5.49283 2.54537C5.46208 2.51668 4.97505 2.07371 4.21127 1.89127V1.57861C4.21127 1.19021 3.89655 0.875488 3.50814 0.875488C3.11974 0.875488 2.80502 1.19021 2.80502 1.57861V1.91808C2.78271 1.92427 2.76058 1.92961 2.73808 1.93646C1.9638 2.16971 1.38565 2.8299 1.22927 3.65949C1.08546 4.42309 1.33474 5.16296 1.87999 5.59056C2.3299 5.94362 2.95249 6.24277 4.02892 6.62331C4.74995 6.87821 4.7343 7.4619 4.69417 7.70106C4.6128 8.18537 4.20545 8.70868 3.50345 8.71337C2.81721 8.719 2.60299 8.68384 2.07527 8.33875C1.75033 8.12621 1.31468 8.21715 1.10196 8.54228C0.88943 8.86722 0.98046 9.30297 1.30549 9.51559C1.87408 9.88759 2.29315 10.0378 2.80502 10.0922V10.4213C2.80502 10.8097 3.11974 11.1244 3.50814 11.1244C3.89655 11.1244 4.21127 10.8097 4.21127 10.4213V10.0234C5.25939 9.73319 5.93083 8.82775 6.08101 7.93412C6.27808 6.7615 5.64179 5.70184 4.49758 5.2974Z" fill="black"/>
</svg>
