<svg width="36" height="25" viewBox="0 0 36 25" fill="none" xmlns="http://www.w3.org/2000/svg">
<path d="M35.656 11.3166L34.783 10.4436C34.3242 9.98483 33.5777 9.98497 33.1191 10.4436L32.6869 10.8758L32.0241 9.27658L33.0991 8.20157C33.5578 7.74278 33.5578 6.99641 33.0991 6.53769L32.2262 5.66462C31.7673 5.2059 31.0209 5.20597 30.5623 5.66469L30.5375 5.68944L29.2566 2.59864L30.6562 1.38631C30.7595 1.29681 30.8625 1.20449 30.9624 1.11188C31.1743 0.915572 31.1868 0.584681 30.9904 0.37297C30.7942 0.161189 30.4633 0.148674 30.2515 0.344986C30.1601 0.429643 30.0659 0.514017 29.9715 0.595861L14.6933 13.8292C13.8947 14.5208 13.0631 15.1717 12.2023 15.7807C11.0138 16.6216 9.7577 17.3882 8.46908 18.0593C8.4688 18.0595 8.46852 18.0597 8.46823 18.0598C8.1353 18.2332 7.79942 18.4011 7.46037 18.5629C7.04595 18.7607 6.6707 18.6036 6.45772 18.3907C6.24481 18.1777 6.08773 17.8025 6.28545 17.388C6.45779 17.0268 6.63765 16.6693 6.8232 16.315C6.89274 16.1822 6.96298 16.0496 7.03456 15.9175C7.05066 15.8877 7.06719 15.8583 7.08336 15.8285C7.15409 15.6989 7.22539 15.5697 7.29802 15.4409C7.31321 15.4139 7.32875 15.3872 7.34401 15.3602C7.41861 15.2288 7.49391 15.0978 7.57041 14.9673C7.58462 14.9431 7.59903 14.919 7.61323 14.8948C7.69121 14.7626 7.77003 14.6308 7.84998 14.4996C7.86446 14.4758 7.87916 14.4521 7.89371 14.4284C7.9733 14.2984 8.05381 14.1689 8.13523 14.04C8.15183 14.0137 8.16856 13.9877 8.18523 13.9614C8.26461 13.8366 8.34484 13.7124 8.42584 13.5887C8.44588 13.5582 8.46598 13.5277 8.48609 13.4973C8.56414 13.379 8.64303 13.2614 8.72256 13.1443C8.74611 13.1097 8.7698 13.075 8.7935 13.0404C8.87106 12.9273 8.94931 12.8147 9.02813 12.7027C9.58873 11.9066 10.1846 11.1351 10.8158 10.3922C11.0026 10.172 10.9759 9.84203 10.7557 9.65507C10.5354 9.46825 10.2057 9.49504 10.0186 9.71512C9.47645 10.3535 8.95958 11.0124 8.4676 11.6889L3.74211 9.54981C2.85055 9.14615 1.78707 9.33993 1.0954 10.0318L0.290959 10.8363C0.0874045 11.0399 -0.0177127 11.3214 0.002467 11.6086C0.022717 11.8959 0.166295 12.1597 0.396358 12.3327L5.65967 16.2914C5.5516 16.5058 5.44501 16.7209 5.34158 16.9376C4.9853 17.6845 5.13317 18.5451 5.71824 19.1302C6.09146 19.5035 6.57676 19.6987 7.07316 19.6987C7.35491 19.6987 7.64031 19.6357 7.91073 19.5067C8.1275 19.4033 8.34259 19.2967 8.5569 19.1887L12.5156 24.452C12.6887 24.682 12.9526 24.8256 13.2397 24.8459C13.2631 24.8475 13.2864 24.8483 13.3097 24.8483C13.5722 24.8483 13.8249 24.7443 14.012 24.5573L14.8163 23.7529C15.5081 23.0612 15.7018 21.9975 15.2984 21.1062L13.1596 16.3814C13.9229 15.8263 14.6632 15.2387 15.3779 14.6196L21.5202 9.29943L30.3737 21.1604C30.6551 21.5375 31.0857 21.7732 31.555 21.807C31.5941 21.8098 31.633 21.8112 31.672 21.8112C32.0999 21.8112 32.512 21.6417 32.8169 21.3368L34.3839 19.7698C35.2382 18.9156 35.4913 17.6425 35.0288 16.5265L34.1736 14.463L35.656 12.9805C36.1147 12.5217 36.1147 11.7753 35.656 11.3166ZM1.07312 11.5332L1.83495 10.7714C2.22069 10.3857 2.81384 10.2777 3.31081 10.5027L7.85497 12.5598C7.84519 12.5741 7.83563 12.5887 7.82593 12.6031C7.76919 12.6869 7.71287 12.771 7.65683 12.8553C7.62955 12.8963 7.60248 12.9376 7.57541 12.9788C7.38486 13.2686 7.19881 13.5614 7.01734 13.8569C6.9947 13.8939 6.97191 13.9306 6.94941 13.9676C6.89577 14.0558 6.84261 14.1442 6.7898 14.2329C6.76245 14.2788 6.73538 14.3247 6.70831 14.3707C6.65734 14.4572 6.60643 14.5437 6.55623 14.6306C6.53063 14.6749 6.5056 14.7195 6.48022 14.7638C6.39718 14.9092 6.31527 15.0551 6.23441 15.2017C6.2067 15.252 6.17851 15.3021 6.15109 15.3525L1.07312 11.5332ZM14.3457 21.5376C14.5707 22.0346 14.4627 22.6277 14.0769 23.0135L13.3152 23.7752L9.49585 18.6973C9.57812 18.6525 9.65996 18.6068 9.74187 18.5613C9.85887 18.4963 9.97538 18.4306 10.0915 18.3642C10.1464 18.3328 10.2012 18.3015 10.2559 18.2699C10.3434 18.2193 10.4305 18.1682 10.5175 18.1168C10.561 18.0911 10.6044 18.0651 10.6479 18.0391C10.9475 17.8601 11.2443 17.6765 11.5382 17.4882C11.5766 17.4636 11.6151 17.4389 11.6534 17.4142C11.7442 17.3555 11.8348 17.2965 11.925 17.2369C11.9612 17.213 11.9972 17.1887 12.0334 17.1647C12.1186 17.1078 12.2042 17.0515 12.2889 16.9939L14.3457 21.5376ZM31.3017 6.40424C31.3525 6.35319 31.4355 6.35319 31.4865 6.40417L32.3594 7.27724C32.4104 7.32814 32.4104 7.41111 32.3594 7.46202L31.5906 8.23089L31.1196 7.09415L30.9708 6.73506L31.3017 6.40424ZM33.6443 19.0303L32.0773 20.5973C31.9578 20.7168 31.7992 20.7753 31.6303 20.764C31.4616 20.7518 31.313 20.6704 31.2118 20.5349L22.3129 8.6129L24.178 6.9974L28.4233 3.32026L34.0626 16.9268C34.3626 17.6506 34.1985 18.4763 33.6443 19.0303ZM34.9164 12.2409L33.7402 13.4172L33.1202 11.9214L33.8586 11.183C33.9095 11.132 33.9925 11.132 34.0435 11.183L34.9164 12.056V12.056C34.9674 12.107 34.9674 12.19 34.9164 12.2409Z" fill="black"/>
</svg>
