<svg width="35" height="33" viewBox="0 0 35 33" fill="none" xmlns="http://www.w3.org/2000/svg">
<path d="M22.8967 21C22.8967 16.0097 19.6869 11.7558 15.2238 10.1922C15.9208 9.03171 16.8486 8.00759 17.9412 7.20134C18.2537 6.97071 18.3201 6.53056 18.0895 6.21809C17.8589 5.90553 17.4187 5.83934 17.1063 6.06978C15.7616 7.06203 14.6364 8.34481 13.8262 9.80074C13.1818 9.66406 12.5177 9.58193 11.8387 9.55906C12.8588 7.45259 14.4045 5.64903 16.3519 4.30634C18.6095 2.74981 21.2541 1.92715 24 1.92715C26.2946 1.92715 28.5627 2.51609 30.5591 3.63021C30.8337 3.7835 31.1767 3.73587 31.3989 3.5135L32.5597 2.35287L32.9443 7.35631L27.9409 6.97174L28.9572 5.95531C29.1206 5.7919 29.1933 5.55846 29.1516 5.33112C29.1098 5.10368 28.9588 4.9114 28.7479 4.81681C27.2482 4.14359 25.6507 3.80225 24 3.80225C22.642 3.80225 21.3108 4.03531 20.0432 4.49515C19.6781 4.62753 19.4895 5.03084 19.6219 5.3959C19.7543 5.76106 20.1576 5.94931 20.5226 5.81712C21.6361 5.41325 22.806 5.2085 24 5.2085C25.1001 5.2085 26.1731 5.3809 27.2018 5.72215L26.8385 6.08553C26.4651 6.45884 26.3468 6.99846 26.53 7.49374C26.7132 7.98903 27.1541 8.32193 27.6807 8.36243L32.918 8.7649C33.3072 8.79443 33.689 8.65381 33.9652 8.37753C34.2413 8.10143 34.3824 7.71968 34.3525 7.33043L33.9501 2.093C33.9096 1.5665 33.5768 1.12559 33.0814 0.942402C32.5863 0.759121 32.0465 0.877434 31.6732 1.25075L30.7731 2.15075C28.6854 1.08303 26.3551 0.520996 24 0.520996C20.9677 0.520996 18.047 1.42962 15.5537 3.14871C13.2028 4.76956 11.3831 7.00043 10.2722 9.61184C4.51003 10.2025 0 15.0844 0 21C0 27.3127 5.13572 32.4483 11.4484 32.4483C17.761 32.4483 22.8967 27.3127 22.8967 21ZM11.4484 31.042C5.91112 31.042 1.40625 26.5373 1.40625 21C1.40625 15.4628 5.91112 10.958 11.4484 10.958C16.9856 10.958 21.4905 15.4629 21.4905 21C21.4905 26.5372 16.9856 31.042 11.4484 31.042Z" fill="black"/>
</svg>
