<svg width="11" height="10" viewBox="0 0 11 10" fill="none" xmlns="http://www.w3.org/2000/svg">
<path d="M10.4034 3.7711C10.2646 3.3437 9.90207 3.03817 9.45741 2.97357L7.40026 2.6746L6.48019 0.81057C6.28135 0.407539 5.87869 0.157227 5.42935 0.157227C4.97991 0.157227 4.57735 0.407539 4.37841 0.810477L3.45844 2.6746L1.40129 2.97357C0.956633 3.03807 0.594102 3.3437 0.455258 3.7711C0.316414 4.19851 0.430039 4.65882 0.751789 4.97242L2.24045 6.42348L1.88898 8.47229C1.81304 8.91517 1.99163 9.35439 2.3552 9.61858C2.5606 9.76783 2.80088 9.84357 3.04285 9.84357C3.22904 9.84357 3.41626 9.79858 3.58932 9.70773L5.42935 8.74033L7.26929 9.70773C7.66707 9.9168 8.14004 9.88267 8.50341 9.61858C8.86698 9.35448 9.04566 8.91517 8.96963 8.47229L8.61816 6.42348L10.1068 4.97242C10.4287 4.65873 10.5423 4.19842 10.4034 3.7711ZM7.54848 5.50238C7.27229 5.77164 7.14629 6.15939 7.21144 6.53954L7.50348 8.24186L5.97469 7.43814C5.63316 7.2587 5.22563 7.2587 4.8841 7.43814L3.35532 8.24186L3.64735 6.53973C3.7126 6.15948 3.5866 5.77173 3.31032 5.50238L2.07348 4.29676L3.78254 4.04842C4.16429 3.99301 4.4941 3.75348 4.66501 3.40735L5.42935 1.8586L6.19369 3.40735C6.36441 3.75339 6.69441 3.9931 7.07607 4.04851L8.78532 4.29685L7.54848 5.50238Z" fill="black"/>
</svg>
