<svg width="35" height="33" viewBox="0 0 35 33" fill="none" xmlns="http://www.w3.org/2000/svg">
<path d="M35 12C35 5.68738 29.8644 0.551758 23.5517 0.551758C17.2391 0.551758 12.1033 5.68738 12.1033 12C12.1033 16.991 15.3139 21.2454 19.778 22.8085C17.9318 25.9002 14.6328 27.7916 11 27.7916C9.90087 27.7916 8.82818 27.619 7.7988 27.2773L8.16152 26.9146C8.53493 26.5413 8.65315 26.0017 8.46996 25.5064C8.28677 25.0112 7.84587 24.6783 7.31927 24.6378L2.08193 24.2353C1.69193 24.2055 1.31093 24.3465 1.03483 24.6227C0.758741 24.8988 0.617459 25.2806 0.647459 25.6698L1.04993 30.9072C1.09043 31.4337 1.42315 31.8746 1.91852 32.0578C2.41371 32.2409 2.95352 32.1228 3.32683 31.7495L4.22777 30.8486C6.3168 31.9168 8.64659 32.4792 11.0001 32.4792C14.5782 32.4792 18.0407 31.1877 20.7497 28.8429C21.0433 28.5887 21.0754 28.1447 20.8212 27.8511C20.5669 27.5573 20.1229 27.5255 19.8295 27.7796C17.3759 29.9033 14.2403 31.0729 11.0001 31.0729C8.70743 31.0729 6.43962 30.4837 4.4418 29.3688C4.1673 29.2156 3.82437 29.2633 3.60199 29.4855L2.44024 30.6473L2.05577 25.6437L7.0593 26.0283L6.04371 27.044C5.88021 27.2074 5.80755 27.4407 5.84937 27.6682C5.89118 27.8956 6.04202 28.0879 6.25296 28.1825C7.7538 28.8564 9.35102 29.1979 11.0001 29.1979C13.1927 29.1979 15.3302 28.582 17.1814 27.4165C18.8491 26.3666 20.2213 24.9147 21.1745 23.1995C21.8187 23.3361 22.4828 23.4182 23.1616 23.4411C22.7864 24.2142 22.3373 24.9522 21.82 25.643C21.5873 25.9539 21.6506 26.3946 21.9614 26.6273C22.0879 26.722 22.2357 26.7675 22.3823 26.7675C22.5962 26.7675 22.8075 26.6703 22.9457 26.4858C23.6635 25.5271 24.2613 24.4857 24.7285 23.3883C30.4903 22.7972 35 17.9155 35 12ZM23.5517 22.0421C18.0145 22.0421 13.5096 17.5372 13.5096 12C13.5096 6.46288 18.0145 1.95801 23.5517 1.95801C29.0889 1.95801 33.5937 6.46279 33.5937 12C33.5937 17.5373 29.0889 22.0421 23.5517 22.0421Z" fill="black"/>
</svg>
