<svg width="17" height="18" viewBox="0 0 17 18" fill="none" xmlns="http://www.w3.org/2000/svg">
<path d="M8.44837 0.837891C4.58783 0.837891 1.22483 3.57905 0.452052 7.35568C0.374146 7.73621 0.61949 8.10765 0.999927 8.18555C1.38008 8.26299 1.7519 8.01802 1.82971 7.63768C2.46927 4.51242 5.2528 2.24414 8.44837 2.24414C12.1736 2.24414 15.2043 5.2748 15.2043 8.99996C15.2043 12.7251 12.1736 15.7558 8.44837 15.7558C5.26574 15.7558 2.48446 13.4985 1.83515 10.3884C1.75583 10.0082 1.38355 9.76515 1.00311 9.8439C0.622959 9.92331 0.379115 10.2958 0.458521 10.6759C1.24321 14.4343 4.6034 17.162 8.44837 17.162C12.949 17.162 16.6105 13.5005 16.6105 8.99996C16.6105 4.49939 12.949 0.837891 8.44837 0.837891Z" fill="black"/>
</svg>
