<svg width="32" height="20" viewBox="0 0 32 20" fill="none" xmlns="http://www.w3.org/2000/svg">
<path d="M31.1814 1.66718C30.6883 1.17422 30.0072 0.928193 29.3132 0.991615L28.5018 1.06594C25.3738 1.35274 22.5185 2.81819 20.462 5.19258L19.2133 6.63426L16.3329 5.4405L16.487 5.28644C16.9457 4.82765 16.9457 4.08122 16.487 3.6225L15.6141 2.74936C15.1554 2.29078 14.4089 2.29064 13.9502 2.74936L12.7458 3.95367L11.3611 3.37978L11.7082 3.03272C12.1669 2.57393 12.1669 1.82756 11.7082 1.36884L10.8352 0.495842C10.3763 0.037123 9.62988 0.0372637 9.17123 0.495842L7.77398 1.89309L5.41957 0.917295C4.3035 0.454709 3.03049 0.707904 2.17619 1.56206L0.609066 3.12919C0.276418 3.46183 0.105067 3.92182 0.138957 4.39108C0.172848 4.86035 0.408606 5.29087 0.785551 5.57233L12.5359 14.3432L8.61379 18.8713C8.42472 19.0896 8.44842 19.4198 8.66667 19.6089C8.7656 19.6945 8.88745 19.7366 9.00881 19.7366C9.1552 19.7366 9.30082 19.6754 9.40425 19.556L13.6944 14.603C13.6944 14.6029 13.6944 14.6029 13.6945 14.6029L16.2284 11.6775L21.2525 5.87714C23.1312 3.70807 25.7396 2.36932 28.5972 2.10733L29.4086 2.03301C29.7933 1.99779 30.1693 2.13398 30.4419 2.40665C30.7146 2.67926 30.8508 3.05585 30.8155 3.4399L30.7412 4.2513C30.5689 6.13132 29.9124 7.94749 28.8428 9.50323C28.6792 9.74123 28.7395 10.0668 28.9775 10.2304C29.2156 10.3941 29.541 10.3337 29.7047 10.0957C30.8754 8.39271 31.594 6.40476 31.7826 4.34679L31.8569 3.53538C31.9206 2.84112 31.6743 2.16014 31.1814 1.66718ZM14.6896 3.48898C14.7404 3.43793 14.8234 3.43786 14.8745 3.48898L15.7474 4.3619C15.7984 4.41281 15.7984 4.49585 15.7475 4.54676L15.2872 5.00695L14.8626 4.83096L13.7915 4.38701L14.6896 3.48898ZM9.91078 1.23539C9.96161 1.18434 10.0447 1.18427 10.0956 1.23539L10.9686 2.10832C11.0195 2.15922 11.0195 2.24219 10.9686 2.2931L10.3154 2.9463L8.81967 2.32643L9.91078 1.23539ZM13.2225 13.5506L1.41112 4.73421C1.27556 4.6331 1.19428 4.48446 1.18204 4.31578C1.16988 4.1471 1.22894 3.98833 1.34861 3.8688L2.91567 2.30175C3.28586 1.93162 3.77714 1.73552 4.27839 1.73552C4.52737 1.73552 4.77895 1.78397 5.01928 1.88353L18.4917 7.46712L13.2225 13.5506Z" fill="black"/>
</svg>
